<svg width="140" height="140" viewBox="0 0 140 140" fill="none" xmlns="http://www.w3.org/2000/svg">
<circle cx="70" cy="70" r="70" fill="#FF7272"/>
<circle cx="70" cy="70" r="70" fill="url(#paint0_linear_520_1475)"/>
<rect width="140" height="140" rx="40" fill="#FF9494"/>
<rect width="140" height="140" rx="40" fill="url(#paint1_linear_520_1475)"/>
<path d="M100.226 103.693C99.8392 102.676 96.9569 99.4437 95.4604 98.3441C93.2204 96.6982 90.8348 94.9275 88.9566 93.6753C87.2256 92.5213 85.0976 91.5093 82.7453 90.6266C80.7319 89.871 78.3616 89.5897 76.9184 89.32C73.4223 88.6667 71.4529 88.6666 68.178 88.6666C61.1857 88.6666 60.603 89.4218 58.855 89.9733C56.9198 90.5838 55.3085 91.5657 53.6107 92.5865C51.913 93.6072 50.3477 94.9022 48.2611 96.8057C46.3035 98.4157 44.8704 99.7728 43.1638 101.619C42.5396 102.294 42.583 103.139 42.0003 103.693" stroke="#1C0843" stroke-width="8" stroke-linecap="round"/>
<circle cx="42.0002" cy="63" r="11.6667" fill="#1C0843"/>
<circle cx="98.0002" cy="63" r="11.6667" fill="#1C0843"/>
<line x1="29.0421" y1="33.1873" x2="52.2279" y2="45.6719" stroke="#1C0843" stroke-width="4" stroke-linecap="round"/>
<line x1="2" y1="-2" x2="28.3333" y2="-2" transform="matrix(-0.880471 0.4741 0.4741 0.880471 114.666 34)" stroke="#1C0843" stroke-width="4" stroke-linecap="round"/>
<defs>
<linearGradient id="paint0_linear_520_1475" x1="70" y1="75.5" x2="70" y2="-6" gradientUnits="userSpaceOnUse">
<stop stop-color="#CA0404" stop-opacity="0"/>
<stop offset="1" stop-color="#CA0404"/>
</linearGradient>
<linearGradient id="paint1_linear_520_1475" x1="70" y1="140" x2="70" y2="-10.5" gradientUnits="userSpaceOnUse">
<stop stop-color="#CA0404" stop-opacity="0"/>
<stop offset="1" stop-color="#CA0404"/>
</linearGradient>
</defs>
</svg>
