<svg width="140" height="140" viewBox="0 0 140 140" fill="none" xmlns="http://www.w3.org/2000/svg">
<circle cx="70" cy="70" r="70" fill="#68ED56"/>
<circle cx="70" cy="70" r="70" fill="url(#paint0_linear_520_1448)"/>
<rect width="140" height="140" rx="40" fill="#68ED56"/>
<rect width="140" height="140" rx="40" fill="url(#paint1_linear_520_1448)"/>
<path d="M42 86.3334C42.3868 87.3497 45.2691 90.5823 46.7657 91.6819C49.0057 93.3278 51.3913 95.0985 53.2695 96.3507C55.0005 97.5047 57.1285 98.5167 59.4807 99.3994C61.4941 100.155 63.8644 100.436 65.3077 100.706C68.8038 101.359 70.7732 101.359 74.048 101.359C81.0403 101.359 81.623 100.604 83.3711 100.053C85.3063 99.4422 86.9176 98.4603 88.6153 97.4395C90.3131 96.4188 91.8784 95.1238 93.9649 93.2203C95.9225 91.6103 97.3557 90.2532 99.0622 88.4072C99.6865 87.7319 99.6431 86.887 100.226 86.3334" stroke="#1C0843" stroke-width="8" stroke-linecap="round"/>
<path d="M88.0389 64.0348C88.0812 63.6076 88.3175 62.6419 88.6846 61.8091C89.1733 60.7001 89.6111 59.6094 89.8687 58.8271C90.2145 57.7769 91.2299 56.1778 91.8533 55.2746C92.4596 54.3961 93.1924 53.5796 94.2173 52.9058C95.2446 52.2304 96.2109 51.7702 97.3489 51.4171C98.2274 51.1446 99.1241 51.0658 101.09 51.2586C103.469 51.492 104.335 52.2622 105.159 52.5595C106.092 52.8961 107.007 53.9473 108.095 54.8321C108.878 55.4693 109.338 56.2864 110.355 57.471C111.234 58.494 111.567 59.6045 112.068 60.6469C112.56 61.6696 112.994 62.4119 113.275 63.1843C113.379 63.5655 113.484 63.9496 113.588 64.3308C113.64 64.5228 113.692 64.712 113.745 64.9069" stroke="#1C0843" stroke-width="8" stroke-linecap="round"/>
<path d="M54.5158 63.479C54.4561 63.0539 54.1804 62.0987 53.7796 61.2816C53.2459 60.1935 52.7638 59.1217 52.4745 58.3506C52.086 57.3154 51.006 55.7591 50.3462 54.8822C49.7045 54.0293 48.9388 53.2434 47.8873 52.6121C46.8332 51.9793 45.8489 51.559 44.6973 51.2528C43.8085 51.0165 42.9092 50.9745 40.9533 51.2475C38.585 51.5781 37.752 52.3831 36.9406 52.7138C36.0219 53.0884 35.1508 54.176 34.1 55.1047C33.3433 55.7734 32.9179 56.6085 31.9495 57.8339C31.1133 58.8919 30.8262 60.0151 30.3682 61.0772C29.9189 62.1191 29.515 62.8786 29.2663 63.6618C29.178 64.0469 29.089 64.435 29.0007 64.8201C28.9562 65.0141 28.9123 65.2053 28.8672 65.4022" stroke="#1C0843" stroke-width="8" stroke-linecap="round"/>
<defs>
<linearGradient id="paint0_linear_520_1448" x1="73.5" y1="72" x2="41" y2="18" gradientUnits="userSpaceOnUse">
<stop stop-color="#BBFF68" stop-opacity="0"/>
<stop offset="1" stop-color="#BBFF68"/>
</linearGradient>
<linearGradient id="paint1_linear_520_1448" x1="81.6662" y1="79.3333" x2="13.9996" y2="17.5" gradientUnits="userSpaceOnUse">
<stop stop-color="#D9FF70" stop-opacity="0"/>
<stop offset="1" stop-color="#DAFF33"/>
</linearGradient>
</defs>
</svg>
