<svg width="140" height="140" viewBox="0 0 140 140" fill="none" xmlns="http://www.w3.org/2000/svg">
<circle cx="70" cy="70" r="70" fill="#728AFF"/>
<circle cx="70" cy="70" r="70" fill="url(#paint0_linear_520_1468)" fill-opacity="0.4"/>
<rect width="140" height="140" rx="40" fill="#8B9EFF"/>
<rect width="140" height="140" rx="40" fill="url(#paint1_linear_520_1468)" fill-opacity="0.8"/>
<path d="M28.8501 50.7178C28.8501 51.147 28.9901 52.1313 29.2733 52.9962C29.6504 54.148 29.9786 55.2765 30.1578 56.0804C30.3984 57.1596 31.2513 58.851 31.7827 59.8112C32.2995 60.7451 32.9483 61.6299 33.9018 62.4014C34.8575 63.1747 35.7737 63.7279 36.8715 64.1914C37.7188 64.5491 38.6034 64.7159 40.5783 64.7178C42.9696 64.72 43.9065 64.0388 44.756 63.8242C45.7179 63.5811 46.7319 62.6253 47.9018 61.8519C48.7442 61.295 49.2816 60.5272 50.4112 59.4486C51.3865 58.5172 51.8271 57.4449 52.4284 56.4569C53.0184 55.4876 53.524 54.7918 53.8793 54.0508C54.0204 53.6817 54.1625 53.3098 54.3036 52.9407C54.3746 52.7548 54.4446 52.5716 54.5168 52.3829" stroke="#1C0843" stroke-width="8" stroke-linecap="round"/>
<path d="M110.517 50.7181C110.517 51.1474 110.377 52.1316 110.093 52.9966C109.716 54.1483 109.388 55.2769 109.209 56.0808C108.968 57.1599 108.115 58.8513 107.584 59.8116C107.067 60.7455 106.418 61.6303 105.465 62.4018C104.509 63.1751 103.593 63.7283 102.495 64.1918C101.648 64.5495 100.763 64.7163 98.7884 64.7181C96.3971 64.7204 95.4602 64.0391 94.6107 63.8245C93.6488 63.5815 92.6348 62.6256 91.4649 61.8523C90.6225 61.2954 90.0851 60.5276 88.9555 59.4489C87.9802 58.5176 87.5396 57.4452 86.9383 56.4573C86.3483 55.488 85.8427 54.7921 85.4874 54.0512C85.3463 53.6821 85.2042 53.3102 85.0631 52.9411C84.9921 52.7551 84.9221 52.572 84.8499 52.3833" stroke="#1C0843" stroke-width="8" stroke-linecap="round"/>
<path d="M98.7427 100.744C98.3558 99.7277 95.4735 96.4951 93.977 95.3955C91.737 93.7496 89.3514 91.9788 87.4732 90.7267C85.7422 89.5727 83.6142 88.5607 81.2619 87.678C79.2485 86.9224 76.8782 86.641 75.435 86.3714C71.9389 85.7181 69.9695 85.718 66.6946 85.718C59.7023 85.718 59.1196 86.4732 57.3716 87.0247C55.4364 87.6352 53.8251 88.6171 52.1274 89.6379C50.4296 90.6586 48.8643 91.9536 46.7777 93.8571C44.8201 95.4671 43.387 96.8242 41.6805 98.6702C41.0562 99.3455 41.0996 100.19 40.5169 100.744" stroke="#1C0843" stroke-width="8" stroke-linecap="round"/>
<defs>
<linearGradient id="paint0_linear_520_1468" x1="72" y1="124.5" x2="70" y2="2.49998" gradientUnits="userSpaceOnUse">
<stop stop-color="#0022A8" stop-opacity="0"/>
<stop offset="1" stop-color="#0022A8"/>
</linearGradient>
<linearGradient id="paint1_linear_520_1468" x1="70" y1="140" x2="70" y2="2.49998" gradientUnits="userSpaceOnUse">
<stop stop-color="#0022A8" stop-opacity="0"/>
<stop offset="1" stop-color="#0022A8"/>
</linearGradient>
</defs>
</svg>
