<svg width="140" height="140" viewBox="0 0 140 140" fill="none" xmlns="http://www.w3.org/2000/svg">
<circle cx="70" cy="70" r="70" fill="#FFF36B"/>
<circle cx="70" cy="70" r="70" fill="url(#paint0_linear_520_1485)" fill-opacity="0.4"/>
<rect width="140" height="140" rx="40" fill="#FFF58B"/>
<rect width="140" height="140" rx="40" fill="url(#paint1_linear_520_1485)" fill-opacity="0.8"/>
<path d="M21.2016 44.5633C21.1238 44.2986 21.0929 43.6482 21.2342 43.0272C21.4225 42.2003 21.5634 41.4028 21.6065 40.8516C21.6642 40.1116 22.2553 38.8049 22.6405 38.0485C23.0152 37.3128 23.5376 36.5666 24.4011 35.7962C25.2667 35.024 26.1306 34.3998 27.2016 33.7748C28.0284 33.2924 28.929 32.9163 31.0065 32.3052C33.5222 31.5652 34.6312 31.6961 35.564 31.566C36.6201 31.4188 37.86 31.6952 39.231 31.8109C40.2182 31.8943 40.9227 32.2019 42.3064 32.5183C43.5013 32.7915 44.159 33.3169 44.9707 33.7406C45.7669 34.1562 46.4249 34.4293 46.9329 34.7766C47.1482 34.9607 47.3651 35.1462 47.5803 35.3303C47.6888 35.423 47.7956 35.5144 47.9056 35.6085" stroke="#1C0843" stroke-width="4" stroke-linecap="round"/>
<path d="M122.672 44.5633C122.75 44.2986 122.781 43.6482 122.639 43.0272C122.451 42.2003 122.31 41.4028 122.267 40.8516C122.209 40.1116 121.618 38.8049 121.233 38.0485C120.858 37.3128 120.336 36.5666 119.472 35.7962C118.607 35.024 117.743 34.3998 116.672 33.7748C115.845 33.2924 114.945 32.9163 112.867 32.3052C110.351 31.5652 109.242 31.6961 108.31 31.566C107.253 31.4188 106.013 31.6952 104.643 31.8109C103.655 31.8943 102.951 32.2019 101.567 32.5183C100.372 32.7915 99.7145 33.3169 98.9029 33.7406C98.1066 34.1562 97.4486 34.4293 96.9406 34.7766C96.7253 34.9607 96.5085 35.1462 96.2932 35.3303C96.1848 35.423 96.078 35.5144 95.9679 35.6085" stroke="#1C0843" stroke-width="4" stroke-linecap="round"/>
<circle cx="39.6667" cy="60.6667" r="11.6667" fill="#1C0843"/>
<circle cx="102.667" cy="60.6667" r="11.6667" fill="#1C0843"/>
<ellipse cx="68.8332" cy="102.667" rx="15.1667" ry="21" fill="#1C0843"/>
<defs>
<linearGradient id="paint0_linear_520_1485" x1="71" y1="4" x2="71" y2="121.5" gradientUnits="userSpaceOnUse">
<stop stop-color="#FF9D00" stop-opacity="0"/>
<stop offset="1" stop-color="#FF9D00"/>
</linearGradient>
<linearGradient id="paint1_linear_520_1485" x1="70" y1="0" x2="70" y2="151.667" gradientUnits="userSpaceOnUse">
<stop stop-color="#FF9D00" stop-opacity="0"/>
<stop offset="1" stop-color="#FF9D00"/>
</linearGradient>
</defs>
</svg>
